<?xml version="1.0" encoding="UTF-8"?>
<svg xmlns="http://www.w3.org/2000/svg" xmlns:xlink="http://www.w3.org/1999/xlink" width="144pt" height="144pt" viewBox="0 0 144 144" version="1.1">
<defs>
<clipPath id="clip1">
  <rect width="144" height="144"/>
</clipPath>
<g id="surface149" clip-path="url(#clip1)">
<path style="fill-rule:nonzero;fill:rgb(100%,0%,0%);fill-opacity:1;stroke-width:0.75;stroke-linecap:round;stroke-linejoin:round;stroke:rgb(0%,0%,0%);stroke-opacity:1;stroke-miterlimit:10;" d="M 50.171875 72 C 50.171875 79.828125 43.828125 86.171875 36 86.171875 C 28.171875 86.171875 21.828125 79.828125 21.828125 72 C 21.828125 64.171875 28.171875 57.828125 36 57.828125 C 43.828125 57.828125 50.171875 64.171875 50.171875 72 " transform="matrix(1,0,0,-1,0,144)"/>
<path style="fill-rule:nonzero;fill:rgb(0%,100%,0%);fill-opacity:1;stroke-width:0.75;stroke-linecap:round;stroke-linejoin:round;stroke:rgb(0%,0%,0%);stroke-opacity:1;stroke-miterlimit:10;" d="M 86.171875 72 C 86.171875 79.828125 79.828125 86.171875 72 86.171875 C 64.171875 86.171875 57.828125 79.828125 57.828125 72 C 57.828125 64.171875 64.171875 57.828125 72 57.828125 C 79.828125 57.828125 86.171875 64.171875 86.171875 72 " transform="matrix(1,0,0,-1,0,144)"/>
<path style="fill-rule:nonzero;fill:rgb(0%,0%,100%);fill-opacity:1;stroke-width:0.75;stroke-linecap:round;stroke-linejoin:round;stroke:rgb(0%,0%,0%);stroke-opacity:1;stroke-miterlimit:10;" d="M 122.171875 72 C 122.171875 79.828125 115.828125 86.171875 108 86.171875 C 100.171875 86.171875 93.828125 79.828125 93.828125 72 C 93.828125 64.171875 100.171875 57.828125 108 57.828125 C 115.828125 57.828125 122.171875 64.171875 122.171875 72 " transform="matrix(1,0,0,-1,0,144)"/>
</g>
<pattern id="pattern0" patternUnits="userSpaceOnUse" width="144" height="144" patternTransform="matrix(1,0,0,-1,0,144)">
<use xlink:href="#surface149"/>
</pattern>
</defs>
<g id="surface144">
<rect x="0" y="0" width="144" height="144" style="fill:url(#pattern0);stroke:none;"/>
<path style="fill:none;stroke-width:0.75;stroke-linecap:round;stroke-linejoin:round;stroke:rgb(0%,0%,0%);stroke-opacity:1;stroke-miterlimit:10;" d="M 0 144 L 144 144 L 144 0 L 0 0 Z M 0 144 "/>
</g>
</svg>
