<?xml version="1.0" encoding="UTF-8"?>
<svg xmlns="http://www.w3.org/2000/svg" xmlns:xlink="http://www.w3.org/1999/xlink" width="144pt" height="144pt" viewBox="0 0 144 144" version="1.1">
<defs>
<clipPath id="clip2">
  <path d="M 21 64.914062 L 51 64.914062 L 51 79.085938 L 21 79.085938 Z M 21 64.914062 "/>
</clipPath>
<linearGradient id="linear0" gradientUnits="userSpaceOnUse" x1="0" y1="72" x2="144" y2="72" >
<stop offset="0" style="stop-color:rgb(0%,0%,0%);stop-opacity:1;"/>
<stop offset="1" style="stop-color:rgb(100%,100%,100%);stop-opacity:1;"/>
</linearGradient>
<clipPath id="clip3">
  <path d="M 57 64.914062 L 87 64.914062 L 87 79.085938 L 57 79.085938 Z M 57 64.914062 "/>
</clipPath>
<linearGradient id="linear1" gradientUnits="userSpaceOnUse" x1="0" y1="72" x2="144" y2="72" >
<stop offset="0" style="stop-color:rgb(0%,0%,0%);stop-opacity:1;"/>
<stop offset="1" style="stop-color:rgb(100%,100%,100%);stop-opacity:1;"/>
</linearGradient>
<clipPath id="clip4">
  <path d="M 93 64.914062 L 123 64.914062 L 123 79.085938 L 93 79.085938 Z M 93 64.914062 "/>
</clipPath>
<linearGradient id="linear2" gradientUnits="userSpaceOnUse" x1="0" y1="72" x2="144" y2="72" >
<stop offset="0" style="stop-color:rgb(0%,0%,0%);stop-opacity:1;"/>
<stop offset="1" style="stop-color:rgb(100%,100%,100%);stop-opacity:1;"/>
</linearGradient>
<clipPath id="clip1">
  <rect x="0" y="0" width="144" height="144"/>
</clipPath>
<g id="surface226" clip-path="url(#clip1)">
<g clip-path="url(#clip2)" clip-rule="nonzero">
<path style="fill-rule:nonzero;fill:url(#linear0);stroke-width:0.75;stroke-linecap:round;stroke-linejoin:round;stroke:rgb(0%,0%,0%);stroke-opacity:1;stroke-miterlimit:10;" d="M 50.171875 72 C 50.171875 79.828125 43.828125 86.171875 36 86.171875 C 28.171875 86.171875 21.828125 79.828125 21.828125 72 C 21.828125 64.171875 28.171875 57.828125 36 57.828125 C 43.828125 57.828125 50.171875 64.171875 50.171875 72 "/>
</g>
<g clip-path="url(#clip3)" clip-rule="nonzero">
<path style="fill-rule:nonzero;fill:url(#linear1);stroke-width:0.75;stroke-linecap:round;stroke-linejoin:round;stroke:rgb(0%,0%,0%);stroke-opacity:1;stroke-miterlimit:10;" d="M 86.171875 72 C 86.171875 79.828125 79.828125 86.171875 72 86.171875 C 64.171875 86.171875 57.828125 79.828125 57.828125 72 C 57.828125 64.171875 64.171875 57.828125 72 57.828125 C 79.828125 57.828125 86.171875 64.171875 86.171875 72 "/>
</g>
<g clip-path="url(#clip4)" clip-rule="nonzero">
<path style="fill-rule:nonzero;fill:url(#linear2);stroke-width:0.75;stroke-linecap:round;stroke-linejoin:round;stroke:rgb(0%,0%,0%);stroke-opacity:1;stroke-miterlimit:10;" d="M 122.171875 72 C 122.171875 79.828125 115.828125 86.171875 108 86.171875 C 100.171875 86.171875 93.828125 79.828125 93.828125 72 C 93.828125 64.171875 100.171875 57.828125 108 57.828125 C 115.828125 57.828125 122.171875 64.171875 122.171875 72 "/>
</g>
</g>
</defs>
<g id="surface222">
<use xlink:href="#surface226"/>
<path style="fill:none;stroke-width:0.75;stroke-linecap:round;stroke-linejoin:round;stroke:rgb(0%,0%,0%);stroke-opacity:1;stroke-miterlimit:10;" d="M 0 144 L 144 144 L 144 0 L 0 0 Z M 0 144 "/>
</g>
</svg>
