<?xml version="1.0" encoding="UTF-8"?>
<svg xmlns="http://www.w3.org/2000/svg" xmlns:xlink="http://www.w3.org/1999/xlink" width="144pt" height="144pt" viewBox="0 0 144 144" version="1.1">
<defs>
<filter id="alpha" filterUnits="objectBoundingBox" x="0%" y="0%" width="100%" height="100%">
  <feColorMatrix type="matrix" in="SourceGraphic" values="0 0 0 0 1 0 0 0 0 1 0 0 0 0 1 0 0 0 1 0"/>
</filter>
<clipPath id="clip2">
  <path d="M 14 14 L 58 14 L 58 130 L 14 130 Z M 14 14 "/>
</clipPath>
<clipPath id="clip3">
  <path d="M 129.601562 72 C 129.601562 103.8125 103.8125 129.601562 72 129.601562 C 40.1875 129.601562 14.398438 103.8125 14.398438 72 C 14.398438 40.1875 40.1875 14.398438 72 14.398438 C 103.8125 14.398438 129.601562 40.1875 129.601562 72 "/>
</clipPath>
<clipPath id="clip1">
  <rect x="0" y="0" width="144" height="144"/>
</clipPath>
<g id="surface1601" clip-path="url(#clip1)">
<g clip-path="url(#clip2)" clip-rule="nonzero">
<g clip-path="url(#clip3)" clip-rule="nonzero">
<path style="fill-rule:nonzero;fill:rgb(0%,0%,0%);fill-opacity:1;stroke-width:0.75;stroke-linecap:round;stroke-linejoin:round;stroke:rgb(0%,0%,0%);stroke-opacity:1;stroke-miterlimit:10;" d="M 14.398438 129.601562 L 57.597656 129.601562 L 57.597656 14.402344 L 14.398438 14.402344 Z M 14.398438 129.601562 "/>
</g>
</g>
<path style="fill-rule:nonzero;fill:rgb(0%,0%,0%);fill-opacity:1;stroke-width:0.75;stroke-linecap:round;stroke-linejoin:round;stroke:rgb(0%,0%,0%);stroke-opacity:1;stroke-miterlimit:10;" d="M 86.398438 129.601562 L 129.597656 129.601562 L 129.597656 14.402344 L 86.398438 14.402344 Z M 86.398438 129.601562 "/>
</g>
<mask id="mask0">
  <g filter="url(#alpha)">
<use xlink:href="#surface1601"/>
  </g>
</mask>
<clipPath id="clip4">
  <rect x="0" y="0" width="144" height="144"/>
</clipPath>
<g id="surface1600" clip-path="url(#clip4)">
<rect x="0" y="0" width="144" height="144" style="fill:rgb(74.509804%,74.509804%,74.509804%);fill-opacity:1;stroke:none;"/>
<path style="fill:none;stroke-width:0.75;stroke-linecap:round;stroke-linejoin:round;stroke:rgb(0%,0%,0%);stroke-opacity:1;stroke-miterlimit:10;" d="M 0 144 L 144 144 L 144 0 L 0 0 Z M 0 144 "/>
</g>
</defs>
<g id="surface1595">
<use xlink:href="#surface1600" mask="url(#mask0)"/>
</g>
</svg>
