<?xml version="1.0" encoding="UTF-8"?>
<svg xmlns="http://www.w3.org/2000/svg" xmlns:xlink="http://www.w3.org/1999/xlink" width="144pt" height="144pt" viewBox="0 0 144 144" version="1.1">
<defs>
<clipPath id="clip1">
  <rect x="0" y="0" width="144" height="144"/>
</clipPath>
<g id="surface251" clip-path="url(#clip1)">
<path style=" stroke:none;fill-rule:nonzero;fill:rgb(74.509804%,74.509804%,74.509804%);fill-opacity:1;" d="M 8.503906 144 C 8.503906 148.695312 4.695312 152.503906 0 152.503906 C -4.695312 152.503906 -8.503906 148.695312 -8.503906 144 C -8.503906 139.304688 -4.695312 135.496094 0 135.496094 C 4.695312 135.496094 8.503906 139.304688 8.503906 144 "/>
<path style=" stroke:none;fill-rule:nonzero;fill:rgb(74.509804%,74.509804%,74.509804%);fill-opacity:1;" d="M 36.851562 144 C 36.851562 148.695312 33.042969 152.503906 28.347656 152.503906 C 23.648438 152.503906 19.84375 148.695312 19.84375 144 C 19.84375 139.304688 23.648438 135.496094 28.347656 135.496094 C 33.042969 135.496094 36.851562 139.304688 36.851562 144 "/>
<path style=" stroke:none;fill-rule:nonzero;fill:rgb(74.509804%,74.509804%,74.509804%);fill-opacity:1;" d="M 65.195312 144 C 65.195312 148.695312 61.390625 152.503906 56.691406 152.503906 C 51.996094 152.503906 48.1875 148.695312 48.1875 144 C 48.1875 139.304688 51.996094 135.496094 56.691406 135.496094 C 61.390625 135.496094 65.195312 139.304688 65.195312 144 "/>
<path style=" stroke:none;fill-rule:nonzero;fill:rgb(74.509804%,74.509804%,74.509804%);fill-opacity:1;" d="M 93.542969 144 C 93.542969 148.695312 89.734375 152.503906 85.039062 152.503906 C 80.34375 152.503906 76.535156 148.695312 76.535156 144 C 76.535156 139.304688 80.34375 135.496094 85.039062 135.496094 C 89.734375 135.496094 93.542969 139.304688 93.542969 144 "/>
<path style=" stroke:none;fill-rule:nonzero;fill:rgb(74.509804%,74.509804%,74.509804%);fill-opacity:1;" d="M 121.890625 144 C 121.890625 148.695312 118.082031 152.503906 113.386719 152.503906 C 108.6875 152.503906 104.882812 148.695312 104.882812 144 C 104.882812 139.304688 108.6875 135.496094 113.386719 135.496094 C 118.082031 135.496094 121.890625 139.304688 121.890625 144 "/>
<path style=" stroke:none;fill-rule:nonzero;fill:rgb(74.509804%,74.509804%,74.509804%);fill-opacity:1;" d="M 150.234375 144 C 150.234375 148.695312 146.429688 152.503906 141.730469 152.503906 C 137.035156 152.503906 133.226562 148.695312 133.226562 144 C 133.226562 139.304688 137.035156 135.496094 141.730469 135.496094 C 146.429688 135.496094 150.234375 139.304688 150.234375 144 "/>
<path style=" stroke:none;fill-rule:nonzero;fill:rgb(74.509804%,74.509804%,74.509804%);fill-opacity:1;" d="M 8.503906 115.652344 C 8.503906 120.351562 4.695312 124.15625 0 124.15625 C -4.695312 124.15625 -8.503906 120.351562 -8.503906 115.652344 C -8.503906 110.957031 -4.695312 107.148438 0 107.148438 C 4.695312 107.148438 8.503906 110.957031 8.503906 115.652344 "/>
<path style=" stroke:none;fill-rule:nonzero;fill:rgb(74.509804%,74.509804%,74.509804%);fill-opacity:1;" d="M 36.851562 115.652344 C 36.851562 120.351562 33.042969 124.15625 28.347656 124.15625 C 23.648438 124.15625 19.84375 120.351562 19.84375 115.652344 C 19.84375 110.957031 23.648438 107.148438 28.347656 107.148438 C 33.042969 107.148438 36.851562 110.957031 36.851562 115.652344 "/>
<path style=" stroke:none;fill-rule:nonzero;fill:rgb(74.509804%,74.509804%,74.509804%);fill-opacity:1;" d="M 65.195312 115.652344 C 65.195312 120.351562 61.390625 124.15625 56.691406 124.15625 C 51.996094 124.15625 48.1875 120.351562 48.1875 115.652344 C 48.1875 110.957031 51.996094 107.148438 56.691406 107.148438 C 61.390625 107.148438 65.195312 110.957031 65.195312 115.652344 "/>
<path style=" stroke:none;fill-rule:nonzero;fill:rgb(74.509804%,74.509804%,74.509804%);fill-opacity:1;" d="M 93.542969 115.652344 C 93.542969 120.351562 89.734375 124.15625 85.039062 124.15625 C 80.34375 124.15625 76.535156 120.351562 76.535156 115.652344 C 76.535156 110.957031 80.34375 107.148438 85.039062 107.148438 C 89.734375 107.148438 93.542969 110.957031 93.542969 115.652344 "/>
<path style=" stroke:none;fill-rule:nonzero;fill:rgb(74.509804%,74.509804%,74.509804%);fill-opacity:1;" d="M 121.890625 115.652344 C 121.890625 120.351562 118.082031 124.15625 113.386719 124.15625 C 108.6875 124.15625 104.882812 120.351562 104.882812 115.652344 C 104.882812 110.957031 108.6875 107.148438 113.386719 107.148438 C 118.082031 107.148438 121.890625 110.957031 121.890625 115.652344 "/>
<path style=" stroke:none;fill-rule:nonzero;fill:rgb(74.509804%,74.509804%,74.509804%);fill-opacity:1;" d="M 150.234375 115.652344 C 150.234375 120.351562 146.429688 124.15625 141.730469 124.15625 C 137.035156 124.15625 133.226562 120.351562 133.226562 115.652344 C 133.226562 110.957031 137.035156 107.148438 141.730469 107.148438 C 146.429688 107.148438 150.234375 110.957031 150.234375 115.652344 "/>
<path style=" stroke:none;fill-rule:nonzero;fill:rgb(74.509804%,74.509804%,74.509804%);fill-opacity:1;" d="M 8.503906 87.308594 C 8.503906 92.003906 4.695312 95.8125 0 95.8125 C -4.695312 95.8125 -8.503906 92.003906 -8.503906 87.308594 C -8.503906 82.609375 -4.695312 78.804688 0 78.804688 C 4.695312 78.804688 8.503906 82.609375 8.503906 87.308594 "/>
<path style=" stroke:none;fill-rule:nonzero;fill:rgb(74.509804%,74.509804%,74.509804%);fill-opacity:1;" d="M 36.851562 87.308594 C 36.851562 92.003906 33.042969 95.8125 28.347656 95.8125 C 23.648438 95.8125 19.84375 92.003906 19.84375 87.308594 C 19.84375 82.609375 23.648438 78.804688 28.347656 78.804688 C 33.042969 78.804688 36.851562 82.609375 36.851562 87.308594 "/>
<path style=" stroke:none;fill-rule:nonzero;fill:rgb(74.509804%,74.509804%,74.509804%);fill-opacity:1;" d="M 65.195312 87.308594 C 65.195312 92.003906 61.390625 95.8125 56.691406 95.8125 C 51.996094 95.8125 48.1875 92.003906 48.1875 87.308594 C 48.1875 82.609375 51.996094 78.804688 56.691406 78.804688 C 61.390625 78.804688 65.195312 82.609375 65.195312 87.308594 "/>
<path style=" stroke:none;fill-rule:nonzero;fill:rgb(74.509804%,74.509804%,74.509804%);fill-opacity:1;" d="M 93.542969 87.308594 C 93.542969 92.003906 89.734375 95.8125 85.039062 95.8125 C 80.34375 95.8125 76.535156 92.003906 76.535156 87.308594 C 76.535156 82.609375 80.34375 78.804688 85.039062 78.804688 C 89.734375 78.804688 93.542969 82.609375 93.542969 87.308594 "/>
<path style=" stroke:none;fill-rule:nonzero;fill:rgb(74.509804%,74.509804%,74.509804%);fill-opacity:1;" d="M 121.890625 87.308594 C 121.890625 92.003906 118.082031 95.8125 113.386719 95.8125 C 108.6875 95.8125 104.882812 92.003906 104.882812 87.308594 C 104.882812 82.609375 108.6875 78.804688 113.386719 78.804688 C 118.082031 78.804688 121.890625 82.609375 121.890625 87.308594 "/>
<path style=" stroke:none;fill-rule:nonzero;fill:rgb(74.509804%,74.509804%,74.509804%);fill-opacity:1;" d="M 150.234375 87.308594 C 150.234375 92.003906 146.429688 95.8125 141.730469 95.8125 C 137.035156 95.8125 133.226562 92.003906 133.226562 87.308594 C 133.226562 82.609375 137.035156 78.804688 141.730469 78.804688 C 146.429688 78.804688 150.234375 82.609375 150.234375 87.308594 "/>
<path style=" stroke:none;fill-rule:nonzero;fill:rgb(74.509804%,74.509804%,74.509804%);fill-opacity:1;" d="M 8.503906 58.960938 C 8.503906 63.65625 4.695312 67.464844 0 67.464844 C -4.695312 67.464844 -8.503906 63.65625 -8.503906 58.960938 C -8.503906 54.265625 -4.695312 50.457031 0 50.457031 C 4.695312 50.457031 8.503906 54.265625 8.503906 58.960938 "/>
<path style=" stroke:none;fill-rule:nonzero;fill:rgb(74.509804%,74.509804%,74.509804%);fill-opacity:1;" d="M 36.851562 58.960938 C 36.851562 63.65625 33.042969 67.464844 28.347656 67.464844 C 23.648438 67.464844 19.84375 63.65625 19.84375 58.960938 C 19.84375 54.265625 23.648438 50.457031 28.347656 50.457031 C 33.042969 50.457031 36.851562 54.265625 36.851562 58.960938 "/>
<path style=" stroke:none;fill-rule:nonzero;fill:rgb(74.509804%,74.509804%,74.509804%);fill-opacity:1;" d="M 65.195312 58.960938 C 65.195312 63.65625 61.390625 67.464844 56.691406 67.464844 C 51.996094 67.464844 48.1875 63.65625 48.1875 58.960938 C 48.1875 54.265625 51.996094 50.457031 56.691406 50.457031 C 61.390625 50.457031 65.195312 54.265625 65.195312 58.960938 "/>
<path style=" stroke:none;fill-rule:nonzero;fill:rgb(74.509804%,74.509804%,74.509804%);fill-opacity:1;" d="M 93.542969 58.960938 C 93.542969 63.65625 89.734375 67.464844 85.039062 67.464844 C 80.34375 67.464844 76.535156 63.65625 76.535156 58.960938 C 76.535156 54.265625 80.34375 50.457031 85.039062 50.457031 C 89.734375 50.457031 93.542969 54.265625 93.542969 58.960938 "/>
<path style=" stroke:none;fill-rule:nonzero;fill:rgb(74.509804%,74.509804%,74.509804%);fill-opacity:1;" d="M 121.890625 58.960938 C 121.890625 63.65625 118.082031 67.464844 113.386719 67.464844 C 108.6875 67.464844 104.882812 63.65625 104.882812 58.960938 C 104.882812 54.265625 108.6875 50.457031 113.386719 50.457031 C 118.082031 50.457031 121.890625 54.265625 121.890625 58.960938 "/>
<path style=" stroke:none;fill-rule:nonzero;fill:rgb(74.509804%,74.509804%,74.509804%);fill-opacity:1;" d="M 150.234375 58.960938 C 150.234375 63.65625 146.429688 67.464844 141.730469 67.464844 C 137.035156 67.464844 133.226562 63.65625 133.226562 58.960938 C 133.226562 54.265625 137.035156 50.457031 141.730469 50.457031 C 146.429688 50.457031 150.234375 54.265625 150.234375 58.960938 "/>
<path style=" stroke:none;fill-rule:nonzero;fill:rgb(74.509804%,74.509804%,74.509804%);fill-opacity:1;" d="M 8.503906 30.613281 C 8.503906 35.3125 4.695312 39.117188 0 39.117188 C -4.695312 39.117188 -8.503906 35.3125 -8.503906 30.613281 C -8.503906 25.917969 -4.695312 22.109375 0 22.109375 C 4.695312 22.109375 8.503906 25.917969 8.503906 30.613281 "/>
<path style=" stroke:none;fill-rule:nonzero;fill:rgb(74.509804%,74.509804%,74.509804%);fill-opacity:1;" d="M 36.851562 30.613281 C 36.851562 35.3125 33.042969 39.117188 28.347656 39.117188 C 23.648438 39.117188 19.84375 35.3125 19.84375 30.613281 C 19.84375 25.917969 23.648438 22.109375 28.347656 22.109375 C 33.042969 22.109375 36.851562 25.917969 36.851562 30.613281 "/>
<path style=" stroke:none;fill-rule:nonzero;fill:rgb(74.509804%,74.509804%,74.509804%);fill-opacity:1;" d="M 65.195312 30.613281 C 65.195312 35.3125 61.390625 39.117188 56.691406 39.117188 C 51.996094 39.117188 48.1875 35.3125 48.1875 30.613281 C 48.1875 25.917969 51.996094 22.109375 56.691406 22.109375 C 61.390625 22.109375 65.195312 25.917969 65.195312 30.613281 "/>
<path style=" stroke:none;fill-rule:nonzero;fill:rgb(74.509804%,74.509804%,74.509804%);fill-opacity:1;" d="M 93.542969 30.613281 C 93.542969 35.3125 89.734375 39.117188 85.039062 39.117188 C 80.34375 39.117188 76.535156 35.3125 76.535156 30.613281 C 76.535156 25.917969 80.34375 22.109375 85.039062 22.109375 C 89.734375 22.109375 93.542969 25.917969 93.542969 30.613281 "/>
<path style=" stroke:none;fill-rule:nonzero;fill:rgb(74.509804%,74.509804%,74.509804%);fill-opacity:1;" d="M 121.890625 30.613281 C 121.890625 35.3125 118.082031 39.117188 113.386719 39.117188 C 108.6875 39.117188 104.882812 35.3125 104.882812 30.613281 C 104.882812 25.917969 108.6875 22.109375 113.386719 22.109375 C 118.082031 22.109375 121.890625 25.917969 121.890625 30.613281 "/>
<path style=" stroke:none;fill-rule:nonzero;fill:rgb(74.509804%,74.509804%,74.509804%);fill-opacity:1;" d="M 150.234375 30.613281 C 150.234375 35.3125 146.429688 39.117188 141.730469 39.117188 C 137.035156 39.117188 133.226562 35.3125 133.226562 30.613281 C 133.226562 25.917969 137.035156 22.109375 141.730469 22.109375 C 146.429688 22.109375 150.234375 25.917969 150.234375 30.613281 "/>
<path style=" stroke:none;fill-rule:nonzero;fill:rgb(74.509804%,74.509804%,74.509804%);fill-opacity:1;" d="M 8.503906 2.269531 C 8.503906 6.964844 4.695312 10.773438 0 10.773438 C -4.695312 10.773438 -8.503906 6.964844 -8.503906 2.269531 C -8.503906 -2.429688 -4.695312 -6.234375 0 -6.234375 C 4.695312 -6.234375 8.503906 -2.429688 8.503906 2.269531 "/>
<path style=" stroke:none;fill-rule:nonzero;fill:rgb(74.509804%,74.509804%,74.509804%);fill-opacity:1;" d="M 36.851562 2.269531 C 36.851562 6.964844 33.042969 10.773438 28.347656 10.773438 C 23.648438 10.773438 19.84375 6.964844 19.84375 2.269531 C 19.84375 -2.429688 23.648438 -6.234375 28.347656 -6.234375 C 33.042969 -6.234375 36.851562 -2.429688 36.851562 2.269531 "/>
<path style=" stroke:none;fill-rule:nonzero;fill:rgb(74.509804%,74.509804%,74.509804%);fill-opacity:1;" d="M 65.195312 2.269531 C 65.195312 6.964844 61.390625 10.773438 56.691406 10.773438 C 51.996094 10.773438 48.1875 6.964844 48.1875 2.269531 C 48.1875 -2.429688 51.996094 -6.234375 56.691406 -6.234375 C 61.390625 -6.234375 65.195312 -2.429688 65.195312 2.269531 "/>
<path style=" stroke:none;fill-rule:nonzero;fill:rgb(74.509804%,74.509804%,74.509804%);fill-opacity:1;" d="M 93.542969 2.269531 C 93.542969 6.964844 89.734375 10.773438 85.039062 10.773438 C 80.34375 10.773438 76.535156 6.964844 76.535156 2.269531 C 76.535156 -2.429688 80.34375 -6.234375 85.039062 -6.234375 C 89.734375 -6.234375 93.542969 -2.429688 93.542969 2.269531 "/>
<path style=" stroke:none;fill-rule:nonzero;fill:rgb(74.509804%,74.509804%,74.509804%);fill-opacity:1;" d="M 121.890625 2.269531 C 121.890625 6.964844 118.082031 10.773438 113.386719 10.773438 C 108.6875 10.773438 104.882812 6.964844 104.882812 2.269531 C 104.882812 -2.429688 108.6875 -6.234375 113.386719 -6.234375 C 118.082031 -6.234375 121.890625 -2.429688 121.890625 2.269531 "/>
<path style=" stroke:none;fill-rule:nonzero;fill:rgb(74.509804%,74.509804%,74.509804%);fill-opacity:1;" d="M 150.234375 2.269531 C 150.234375 6.964844 146.429688 10.773438 141.730469 10.773438 C 137.035156 10.773438 133.226562 6.964844 133.226562 2.269531 C 133.226562 -2.429688 137.035156 -6.234375 141.730469 -6.234375 C 146.429688 -6.234375 150.234375 -2.429688 150.234375 2.269531 "/>
</g>
<pattern id="pattern0" patternUnits="userSpaceOnUse" width="144" height="144">
<use xlink:href="#surface251"/>
</pattern>
</defs>
<g id="surface247">
<path style="fill-rule:nonzero;fill:url(#pattern0);stroke-width:0.75;stroke-linecap:round;stroke-linejoin:round;stroke:rgb(0%,0%,0%);stroke-opacity:1;stroke-miterlimit:10;" d="M 36 144 L 108 144 L 108 0 L 36 0 Z M 36 144 "/>
</g>
</svg>
